<?xml version="1.0" standalone="no"?>
<!DOCTYPE svg PUBLIC "-//W3C//DTD SVG 20010904//EN"
 "http://www.w3.org/TR/2001/REC-SVG-20010904/DTD/svg10.dtd">
<svg version="1.0" xmlns="http://www.w3.org/2000/svg"
 width="500.000000pt" height="500.000000pt" viewBox="0 0 500.000000 500.000000"
 preserveAspectRatio="xMidYMid meet">

<g transform="translate(0.000000,500.000000) scale(0.100000,-0.100000)"
fill="#000000" stroke="none">
<path d="M10 4991 c0 -5 10 -22 23 -38 12 -15 31 -45 42 -66 17 -33 18 -39 5
-47 -12 -7 -12 -14 -2 -43 16 -44 15 -82 -2 -115 -14 -27 -13 -29 20 -51 18
-13 36 -33 40 -45 4 -11 17 -34 30 -49 13 -16 27 -41 30 -55 11 -50 34 -91 48
-86 7 3 19 -3 27 -12 16 -19 39 -82 39 -107 0 -10 6 -17 12 -15 8 3 15 32 18
74 3 38 9 75 14 82 20 33 77 -7 139 -97 40 -58 64 -124 87 -238 11 -52 22 -98
25 -103 2 -4 22 -10 44 -13 94 -12 253 -151 290 -253 12 -35 22 -48 34 -46 10
2 17 -4 17 -11 0 -16 27 -30 41 -21 5 3 9 26 9 50 0 38 -9 59 -47 119 -47 73
-84 132 -91 149 -3 4 14 -10 37 -32 22 -22 41 -44 41 -50 0 -6 8 -13 18 -17
25 -9 84 -94 78 -112 -4 -8 -3 -20 1 -26 4 -6 8 -25 10 -42 2 -25 -3 -34 -32
-53 -19 -12 -35 -27 -35 -34 0 -6 -10 -22 -22 -35 -19 -21 -20 -25 -7 -38 8
-9 41 -20 72 -25 78 -12 107 -36 152 -122 79 -151 232 -387 340 -523 30 -38
71 -94 90 -122 20 -29 73 -98 120 -153 95 -112 99 -124 64 -212 -11 -29 -37
-98 -56 -153 -19 -55 -43 -118 -53 -140 -9 -22 -21 -51 -25 -65 -4 -13 -33
-72 -65 -130 -31 -58 -76 -141 -100 -185 -180 -336 -284 -522 -300 -536 -67
-58 -503 -181 -1105 -311 -27 -6 -67 -17 -87 -25 l-38 -15 0 -399 0 -399 714
0 714 0 29 28 c16 15 123 115 238 222 115 107 237 221 270 254 134 130 352
336 378 356 l28 23 69 -28 c82 -33 106 -53 119 -100 8 -31 38 -81 66 -111 5
-6 26 -30 45 -53 21 -24 44 -41 57 -41 13 0 30 -11 39 -25 14 -22 37 -35 72
-41 8 -1 19 -9 25 -18 7 -8 40 -24 75 -36 57 -18 71 -19 152 -9 49 6 94 8 100
4 5 -3 10 -35 10 -69 0 -61 2 -65 35 -90 51 -39 72 -44 274 -65 l184 -20 81
-79 c94 -92 117 -107 145 -92 22 11 51 64 51 90 0 10 8 28 18 40 18 22 18 22
141 9 100 -10 135 -11 194 0 40 7 101 17 137 23 107 17 114 21 106 71 -6 39
-35 126 -91 272 l-23 60 -108 5 c-110 6 -261 41 -276 64 -4 6 -8 34 -8 61 0
28 -7 117 -15 198 -8 82 -20 244 -25 360 -12 239 -19 281 -52 313 -13 13 -78
47 -144 77 -67 29 -185 91 -262 136 -110 64 -151 94 -189 138 -71 84 -124 131
-220 196 -91 60 -120 68 -169 42 -40 -21 -108 -19 -153 4 -66 34 -72 52 -87
270 -7 108 -16 214 -19 237 -10 73 53 138 160 164 44 11 68 24 100 55 34 34
58 47 131 69 173 52 189 65 282 231 121 219 115 200 120 355 4 135 -8 318 -30
433 -8 45 -27 83 -85 170 -72 109 -91 128 -200 202 -29 19 -56 41 -60 49 -6
11 -38 15 -133 17 l-125 4 -65 -45 c-35 -25 -70 -50 -78 -57 -7 -7 -19 -10
-27 -7 -23 9 -18 44 8 53 22 9 22 9 -5 20 -33 13 -35 33 -7 73 12 16 19 31 17
34 -12 12 -129 10 -146 -2 -16 -12 -15 -13 6 -14 12 0 22 -6 22 -14 0 -8 12
-17 27 -21 23 -5 25 -8 12 -15 -10 -6 -30 -5 -50 0 -38 11 -112 13 -146 4 -19
-5 -21 -10 -12 -26 6 -10 21 -23 35 -28 32 -13 30 -31 -7 -52 -24 -14 -34 -15
-49 -5 -22 13 -26 32 -10 42 21 13 10 50 -20 67 -21 12 -30 25 -30 43 0 14 -6
25 -13 25 -7 0 -29 9 -49 20 -41 22 -146 60 -165 60 -7 0 -35 -22 -63 -50 -28
-27 -57 -50 -65 -50 -8 0 -24 18 -35 40 -11 22 -24 40 -29 40 -5 0 -17 7 -26
16 -9 9 -37 19 -62 22 -42 5 -48 9 -92 70 -25 36 -64 88 -86 116 -75 94 -116
157 -122 187 l-5 29 -173 0 c-167 0 -173 -1 -178 -21 l-6 -21 -29 21 c-18 12
-45 21 -67 21 l-37 0 32 -40 c18 -22 45 -47 61 -55 42 -22 61 -65 57 -133 l-3
-57 -63 -3 c-44 -2 -71 2 -87 12 -37 24 -66 81 -77 152 -9 61 -8 67 11 88 12
12 21 25 21 29 0 4 -29 7 -65 7 -36 0 -65 -4 -65 -8 0 -5 -20 -30 -45 -55 -25
-26 -45 -51 -45 -55 0 -4 18 -26 41 -47 54 -54 82 -100 74 -125 -4 -11 0 -29
9 -42 35 -49 10 -162 -48 -219 -36 -36 -101 -52 -136 -34 -34 18 -72 63 -116
139 -49 83 -44 100 29 106 61 5 74 19 31 34 -19 6 -29 5 -35 -5 -7 -11 -9 -11
-9 2 0 9 -9 24 -19 33 -11 10 -21 28 -23 39 -2 12 -15 28 -31 35 -15 7 -39 29
-55 49 -15 20 -37 47 -50 61 -22 23 -24 35 -8 73 7 15 -14 17 -213 18 -136 1
-221 -2 -221 -8z m1554 -210 c21 -23 18 -65 -6 -69 -11 -2 -23 8 -33 28 -27
53 2 82 39 41z m-397 -90 c15 15 33 3 33 -22 0 -17 -6 -20 -32 -17 -30 3 -33
1 -30 -23 1 -17 -3 -29 -14 -33 -23 -9 -28 -1 -14 24 17 31 -3 50 -28 27 -10
-9 -24 -17 -30 -17 -20 0 -13 34 9 49 18 11 23 11 30 -1 7 -10 12 -10 25 4 12
12 22 14 29 8 7 -6 15 -6 22 1z m506 -55 c47 -63 56 -89 37 -101 -5 -3 -10
-19 -10 -35 0 -19 -11 -42 -29 -62 -29 -33 -30 -33 -48 -13 -10 11 -32 38 -48
60 -16 22 -49 64 -72 93 -44 55 -59 112 -29 112 13 0 50 -38 58 -59 2 -5 18
-6 36 -4 27 4 32 9 26 25 -5 18 10 48 25 48 4 0 28 -29 54 -64z m-1358 29 c39
-7 75 -30 75 -47 0 -5 11 -21 25 -36 14 -15 25 -30 25 -35 0 -15 -42 15 -47
34 -3 10 -11 19 -19 19 -7 0 -28 13 -46 28 -49 43 -66 46 -92 17 -25 -27 -36
-31 -36 -15 0 18 54 59 65 50 6 -4 28 -11 50 -15z m1058 -100 c19 -19 41 -53
49 -77 10 -28 21 -44 34 -46 50 -10 112 -107 112 -176 0 -35 -5 -49 -29 -72
l-29 -28 0 62 c0 57 -2 63 -25 74 -14 6 -29 25 -36 45 -8 26 -15 32 -29 28
-29 -9 -126 58 -139 96 -12 34 -15 131 -5 142 11 11 63 -15 97 -48z m-313 20
c0 -8 -7 -15 -15 -15 -16 0 -20 12 -8 23 11 12 23 8 23 -8z m-10 -70 c0 -8 -4
-15 -10 -15 -5 0 -10 7 -10 15 0 8 5 15 10 15 6 0 10 -7 10 -15z m-562 -40
c-3 -3 -9 2 -12 12 -6 14 -5 15 5 6 7 -7 10 -15 7 -18z m1481 1 c20 -11 21
-15 9 -22 -22 -13 -38 -48 -38 -83 0 -29 -2 -30 -47 -33 -49 -3 -70 -24 -31
-30 l23 -5 -25 -10 -25 -10 33 -17 c27 -14 31 -20 22 -31 -7 -8 -10 -22 -6
-30 6 -16 32 -21 38 -6 2 5 18 7 37 3 30 -7 35 -13 48 -57 21 -73 54 -136 88
-170 16 -17 53 -57 80 -89 28 -32 55 -64 60 -70 36 -39 115 -138 115 -145 0
-4 -43 -50 -95 -101 -77 -78 -102 -110 -135 -177 -22 -45 -44 -84 -50 -88 -5
-3 -10 -14 -10 -23 0 -9 -13 -45 -30 -80 -17 -35 -36 -103 -45 -155 -19 -109
-28 -123 -57 -84 -11 15 -26 27 -33 27 -8 0 -68 64 -133 143 -166 197 -389
428 -408 420 -15 -6 -44 13 -44 29 0 6 7 7 16 4 9 -3 14 -3 12 1 -51 100 -59
164 -28 246 30 81 97 113 116 55 9 -31 84 -108 103 -108 9 0 22 -5 29 -12 18
-18 35 4 38 49 1 21 3 38 4 38 1 0 4 26 6 57 2 31 9 70 17 85 8 15 13 33 10
39 -2 6 6 19 17 29 13 12 20 31 20 56 0 21 7 45 16 53 9 10 13 24 9 35 -4 14
0 23 15 31 13 7 20 21 20 42 0 21 11 44 38 73 20 24 48 59 62 78 19 27 30 35
46 31 14 -4 23 0 27 10 8 19 34 20 66 2z m-989 -32 c0 -4 -22 -32 -48 -63 -27
-31 -51 -64 -55 -73 -8 -22 -27 -24 -27 -3 0 17 39 77 53 84 5 2 20 16 35 32
24 27 42 37 42 23z m-450 -14 c0 -5 -2 -10 -4 -10 -3 0 -8 5 -11 10 -3 6 -1
10 4 10 6 0 11 -4 11 -10z m2137 -62 c3 -37 3 -38 -30 -38 -23 0 -41 8 -57 25
l-23 25 34 15 c53 23 71 16 76 -27z m-2077 -8 c0 -5 -2 -10 -4 -10 -3 0 -8 5
-11 10 -3 6 -1 10 4 10 6 0 11 -4 11 -10z m432 -22 c-12 -12 -24 -19 -28 -16
-3 4 4 16 16 28 12 12 24 19 28 16 3 -4 -4 -16 -16 -28z m148 1 c58 -17 69
-24 98 -67 17 -26 32 -55 32 -65 0 -14 4 -16 19 -8 51 28 30 -68 -42 -190 -69
-117 -74 -121 -117 -109 -50 14 -74 34 -125 101 -102 134 -121 220 -56 254 33
17 86 90 76 105 -8 13 17 8 115 -21z m1430 -19 c0 -5 -4 -10 -10 -10 -5 0 -10
5 -10 10 0 6 5 10 10 10 6 0 10 -4 10 -10z m-1840 -161 c0 -8 -54 -49 -65 -49
-3 0 -4 8 -1 18 7 20 -21 91 -61 157 -19 32 -8 23 51 -39 42 -44 76 -83 76
-87z m1920 141 c0 -5 -4 -10 -9 -10 -6 0 -23 -14 -40 -32 -25 -27 -32 -30 -45
-19 -24 20 -20 28 22 50 41 22 72 27 72 11z m-2036 -235 c8 -30 1 -45 -20 -45
-9 0 -14 10 -14 28 0 47 24 58 34 17z m651 -205 c-15 -28 -18 -30 -58 -24 -48
8 -51 9 -43 22 4 7 17 6 36 -1 26 -10 33 -9 52 11 30 29 32 28 13 -8z m-125
-90 c-7 -12 -16 -17 -28 -13 -34 12 -36 17 -12 24 45 13 52 11 40 -11z m-196
-66 c3 -8 2 -12 -4 -9 -6 3 -10 10 -10 16 0 14 7 11 14 -7z m224 -68 c-4 -30
-42 -28 -46 2 -2 13 -1 30 2 39 6 14 9 14 27 -3 11 -10 19 -27 17 -38z m72
-116 c0 -5 -7 -10 -16 -10 -8 0 -12 5 -9 10 3 6 10 10 16 10 5 0 9 -4 9 -10z
m6 -55 c9 -14 13 -29 9 -33 -7 -7 -45 34 -45 49 0 18 20 9 36 -16z m170 -83
c23 -19 46 -67 37 -76 -3 -3 -12 -1 -19 5 -8 6 -21 9 -29 5 -11 -4 -15 1 -15
17 0 12 -4 29 -9 37 -10 14 -6 30 7 30 4 0 16 -8 28 -18z m154 -142 c0 -5 -2
-10 -4 -10 -3 0 -8 5 -11 10 -3 6 -1 10 4 10 6 0 11 -4 11 -10z m-57 -110 c15
-28 14 -29 -4 -20 -26 15 -45 50 -25 50 8 0 21 -13 29 -30z m175 -82 c7 -7 12
-22 12 -34 0 -18 -4 -21 -21 -17 -23 7 -34 26 -25 48 7 18 18 19 34 3z m93
-211 c-1 -12 -15 -9 -19 4 -3 6 1 10 8 8 6 -3 11 -8 11 -12z m29 -67 c0 -14
-14 -12 -28 2 -19 19 -14 30 8 18 11 -6 20 -15 20 -20z m129 -40 c7 0 41 -64
41 -76 0 -3 -13 3 -30 12 -32 20 -63 81 -34 70 9 -3 19 -6 23 -6z m661 -80 c0
-5 -5 -10 -11 -10 -5 0 -7 5 -4 10 3 6 8 10 11 10 2 0 4 -4 4 -10z m-600 -120
c6 -11 7 -20 2 -20 -10 0 -32 21 -32 32 0 16 19 8 30 -12z m158 -72 c14 -14
16 -48 3 -48 -15 0 -41 30 -41 46 0 17 22 18 38 2z m230 -298 c9 -24 8 -30 -3
-30 -17 0 -45 38 -45 63 0 28 36 4 48 -33z m302 -294 c6 -8 17 -13 24 -10 14
5 43 -42 33 -53 -4 -3 -16 2 -28 13 -19 17 -21 18 -30 1 -13 -22 -32 -22 -52
1 -15 16 -15 20 -1 40 18 25 36 28 54 8z m105 -46 c3 -5 11 -7 18 -4 19 7 53
-34 40 -47 -7 -7 -14 -5 -22 5 -7 8 -20 12 -28 9 -15 -6 -43 20 -43 39 0 11
28 10 35 -2z m95 -40 c0 -5 -4 -10 -10 -10 -5 0 -10 5 -10 10 0 6 5 10 10 10
6 0 10 -4 10 -10z m-190 -46 c0 -25 -23 -27 -41 -3 -13 17 -15 27 -7 37 9 10
14 9 29 -4 11 -10 19 -23 19 -30z m207 -9 c9 -9 12 -23 8 -33 -6 -16 -8 -16
-21 2 -14 20 -19 46 -8 46 3 0 12 -7 21 -15z m-207 -41 c8 -8 14 -30 16 -47 1
-18 5 -42 9 -54 5 -17 3 -23 -8 -23 -21 0 -40 27 -33 46 4 9 -1 28 -10 41 -25
39 -2 72 26 37z m235 -45 c4 -11 4 -23 1 -26 -8 -9 -36 17 -36 33 0 22 28 16
35 -7z m34 -85 c22 -28 28 -54 12 -54 -12 0 -51 54 -51 69 0 19 18 12 39 -15z
m-189 -34 c8 -15 17 -19 31 -15 11 4 26 1 34 -5 8 -7 22 -10 31 -6 10 4 24 -5
41 -25 l26 -30 21 20 22 21 27 -28 c27 -28 32 -47 21 -76 -6 -17 -44 -23 -44
-7 0 18 -32 42 -50 36 -12 -4 -24 5 -41 30 -25 36 -44 44 -52 23 -3 -9 -11 -5
-22 10 -10 13 -23 21 -32 18 -8 -3 -25 1 -38 10 -22 14 -25 14 -44 -7 -28 -30
-56 -31 -82 -3 -26 28 -16 53 11 29 19 -18 60 -13 60 7 0 6 9 8 20 5 11 -3 23
-1 26 4 9 15 23 10 34 -11z m80 -162 c0 -6 -7 -5 -15 2 -8 7 -15 17 -15 22 0
6 7 5 15 -2 8 -7 15 -17 15 -22z m479 -337 c-3 -25 -16 -39 -28 -32 -18 11 -8
38 13 38 9 0 16 -3 15 -6z m-159 -21 c0 -5 -4 -10 -10 -10 -5 0 -10 5 -10 10
0 6 5 10 10 10 6 0 10 -4 10 -10z m-730 -105 c8 -10 10 -19 4 -25 -12 -12 -54
-1 -54 14 0 29 30 35 50 11z m985 -37 c-10 -13 -14 -16 -11 -8 3 8 9 24 13 35
4 11 8 14 11 7 2 -6 -4 -22 -13 -34z m-145 -3 c-7 -9 -15 -13 -18 -10 -3 2 1
11 8 20 7 9 15 13 18 10 3 -2 -1 -11 -8 -20z m-250 -214 c0 -10 9 -21 20 -24
11 -3 20 -12 20 -21 0 -9 11 -18 25 -22 13 -3 29 -12 35 -19 10 -11 2 -14 -40
-13 -44 1 -53 5 -61 25 -6 17 -16 23 -38 23 -26 0 -60 24 -49 35 6 6 71 34 81
35 4 0 7 -8 7 -19z"/>
<path d="M1856 4421 c-4 -7 -5 -15 -2 -18 9 -9 19 4 14 18 -4 11 -6 11 -12 0z"/>
<path d="M1860 4370 c0 -5 5 -10 10 -10 6 0 10 5 10 10 0 6 -4 10 -10 10 -5 0
-10 -4 -10 -10z"/>
<path d="M1790 4360 c0 -5 9 -10 21 -10 11 0 17 5 14 10 -3 6 -13 10 -21 10
-8 0 -14 -4 -14 -10z"/>
<path d="M1821 4241 c-11 -7 -12 -15 -4 -33 l10 -23 7 23 c4 12 12 22 17 22 5
0 9 5 9 10 0 12 -20 13 -39 1z"/>
<path d="M1810 4171 c0 -5 7 -14 15 -21 12 -10 15 -10 15 3 0 8 6 18 13 20 6
3 0 6 -15 6 -16 1 -28 -3 -28 -8z"/>
<path d="M1956 4004 c-16 -16 -17 -19 -3 -29 12 -8 14 -23 10 -56 -4 -42 -4
-43 9 -19 23 40 26 63 13 93 -11 28 -13 28 -29 11z"/>
<path d="M1680 4001 c0 -6 5 -13 10 -16 6 -3 10 1 10 9 0 9 -4 16 -10 16 -5 0
-10 -4 -10 -9z"/>
<path d="M1710 3941 c0 -11 5 -23 10 -26 6 -3 10 3 10 14 0 11 -4 23 -10 26
-5 3 -10 -3 -10 -14z"/>
<path d="M1770 3830 c0 -11 5 -20 10 -20 6 0 10 9 10 20 0 11 -4 20 -10 20 -5
0 -10 -9 -10 -20z"/>
<path d="M1790 3788 c0 -6 12 -30 28 -52 22 -32 28 -36 31 -21 2 11 -2 21 -8
23 -6 2 -11 12 -11 22 0 11 -9 24 -20 30 -15 8 -20 8 -20 -2z"/>
<path d="M1850 3684 c0 -3 5 -15 11 -26 8 -16 13 -18 19 -8 11 17 1 40 -16 40
-8 0 -14 -3 -14 -6z"/>
<path d="M1890 3616 c0 -8 5 -18 10 -21 6 -3 10 3 10 14 0 12 -4 21 -10 21 -5
0 -10 -6 -10 -14z"/>
<path d="M1921 3550 c6 -16 15 -30 20 -30 5 0 9 -7 9 -15 0 -8 5 -15 10 -15
15 0 12 26 -5 40 -8 7 -15 21 -15 31 0 11 -7 19 -14 19 -12 0 -13 -6 -5 -30z"/>
<path d="M4600 4624 c-41 -7 -97 -16 -124 -20 l-49 -7 39 -15 c22 -8 54 -21
73 -29 28 -12 38 -13 57 -2 30 16 42 5 25 -22 -16 -26 -12 -29 33 -31 20 -1
36 -5 36 -10 0 -16 47 -7 66 13 17 19 18 21 1 30 -20 12 -23 34 -3 26 7 -3 20
2 28 12 12 14 12 19 -1 32 -9 9 -29 19 -46 22 -16 3 -37 8 -45 10 -8 3 -49 -1
-90 -9z"/>
<path d="M4267 4550 c-32 -6 -55 -15 -129 -51 -10 -5 -27 -9 -38 -9 -12 0 -18
-4 -15 -10 3 -5 15 -10 26 -10 10 0 19 -4 19 -10 0 -12 98 -12 160 0 29 5 49
5 58 -2 7 -6 30 -8 52 -5 30 4 40 2 40 -9 0 -8 11 -20 25 -26 14 -6 30 -26 37
-45 7 -18 18 -33 25 -33 7 0 22 -13 35 -30 12 -16 28 -30 35 -30 7 0 13 -4 13
-10 0 -5 6 -10 13 -10 11 0 67 102 67 123 0 4 -13 7 -30 7 -16 0 -30 5 -30 10
0 6 9 10 20 10 32 0 23 17 -13 24 -18 3 -49 15 -69 26 -21 11 -48 19 -60 18
-46 -2 -178 43 -178 61 0 14 -22 18 -63 11z m364 -170 c35 0 39 -22 7 -44 -32
-23 -61 -20 -87 8 -29 31 -19 50 21 42 17 -3 43 -6 59 -6z"/>
<path d="M2720 4520 c0 -5 5 -10 10 -10 6 0 10 5 10 10 0 6 -4 10 -10 10 -5 0
-10 -4 -10 -10z"/>
<path d="M2784 4513 c4 -9 1 -20 -6 -25 -10 -7 -9 -11 5 -22 10 -8 15 -20 11
-30 -4 -11 0 -16 14 -16 11 0 22 5 24 12 7 19 -26 98 -40 98 -9 0 -12 -6 -8
-17z"/>
<path d="M4038 4433 c7 -3 16 -2 19 1 4 3 -2 6 -13 5 -11 0 -14 -3 -6 -6z"/>
<path d="M4865 4430 c-37 -4 -45 -8 -32 -14 10 -5 36 -4 60 3 23 6 53 12 67
14 43 7 -41 4 -95 -3z"/>
<path d="M4730 4330 c-1 -3 -3 -15 -4 -28 -2 -12 -8 -28 -14 -34 -7 -7 -7 -19
-2 -34 6 -14 5 -24 -2 -26 -5 -2 6 -12 25 -23 20 -10 39 -28 42 -39 5 -16 8
-18 12 -6 13 33 37 50 73 50 24 0 40 5 43 15 9 22 -7 26 -93 23 -79 -2 -115 6
-66 17 85 17 85 17 44 27 -26 7 -40 17 -47 36 -5 15 -10 25 -11 22z"/>
<path d="M4466 4305 c11 -9 14 -14 6 -15 -7 0 -12 -8 -10 -17 2 -11 -7 -20
-27 -26 -72 -22 -68 -27 18 -24 48 2 92 8 97 13 11 11 -69 84 -91 84 -7 0 -4
-7 7 -15z m44 -29 c0 -3 -4 -8 -10 -11 -5 -3 -10 -1 -10 4 0 6 5 11 10 11 6 0
10 -2 10 -4z"/>
<path d="M4184 4261 c11 -11 23 -21 28 -21 14 0 -1 19 -25 31 -22 12 -22 12
-3 -10z"/>
<path d="M4420 4190 c-30 -4 -66 -12 -80 -18 l-25 -10 30 -12 c17 -7 63 -15
103 -18 58 -4 72 -8 72 -21 0 -9 -5 -22 -12 -29 -9 -9 -9 -12 -1 -12 14 0 53
53 53 72 0 8 5 19 11 25 31 31 -28 40 -151 23z"/>
<path d="M4676 4117 c3 -17 17 -42 30 -53 20 -20 25 -20 43 -7 29 20 26 35
-12 58 -64 39 -69 39 -61 2z"/>
<path d="M4603 4102 c-21 -29 -43 -92 -43 -126 0 -15 3 -16 14 -7 10 8 16 9
21 1 10 -16 25 -1 25 26 0 14 4 23 9 20 22 -14 29 70 8 98 -12 16 -14 15 -34
-12z"/>
<path d="M962 3636 c1 -10 8 -17 13 -17 15 1 12 24 -3 29 -9 3 -13 -2 -10 -12z"/>
<path d="M971 3584 c0 -11 3 -14 6 -6 3 7 2 16 -1 19 -3 4 -6 -2 -5 -13z"/>
</g>
</svg>
